 <svg  version="1.0" xmlns="http://www.w3.org/2000/svg"  width="245.000000pt" height="140.000000pt" viewBox="0 0 245.000000 140.000000"  preserveAspectRatio="xMidYMid meet">  <g transform="translate(0.000000,140.000000) scale(0.100000,-0.100000)" fill="#1c72bd" stroke="none"> <path d="M1205 1389 c-334 -17 -625 -139 -888 -374 -53 -48 -97 -90 -97 -94 0 -9 92 -97 160 -153 191 -156 391 -253 610 -298 98 -20 280 -38 280 -28 0 5 -241 224 -284 258 -19 15 -19 14 -2 -18 10 -19 15 -36 12 -40 -8 -8 -117 26 -210 65 -95 40 -176 88 -269 157 l-68 51 33 29 c18 15 67 51 108 78 419 278 967 279 1399 2 l73 -47 -6 -39 c-9 -54 9 -111 47 -155 39 -44 82 -63 142 -63 60 0 103 19 142 63 114 130 10 334 -160 313 -47 -5 -54 -3 -112 38 -93 67 -242 143 -353 181 -191 65 -339 84 -557 74z m1116 -408 c41 -41 41 -98 0 -143 -25 -28 -36 -33 -76 -33 -40 0 -51 5 -77 34 -27 30 -30 39 -25 80 7 61 41 91 103 91 37 0 51 -6 75 -29z"/> <path d="M692 948 c-17 -17 -15 -64 4 -82 34 -35 94 -6 94 45 0 14 -5 30 -12 37 -16 16 -70 16 -86 0z"/> <path d="M1180 957 c0 -7 288 -267 296 -267 3 0 -4 16 -16 36 -12 19 -20 37 -18 39 10 10 200 -58 291 -104 105 -53 258 -160 253 -176 -6 -21 -146 -118 -236 -164 -117 -60 -242 -105 -357 -128 -119 -23 -356 -23 -475 0 -167 33 -344 106 -475 195 l-61 41 5 46 c13 113 -81 215 -197 215 -36 -1 -101 -33 -132 -66 -94 -100 -47 -270 86 -309 28 -9 65 -12 87 -9 33 6 45 1 101 -39 446 -317 1074 -342 1547 -62 101 60 147 94 269 204 l83 74 -23 25 c-38 41 -189 165 -262 216 -145 100 -315 173 -491 211 -73 16 -275 32 -275 22z m-917 -377 c79 -62 34 -190 -67 -190 -44 0 -91 38 -100 80 -7 39 14 92 45 114 33 22 91 20 122 -4z"/> <path d="M1663 524 c-15 -24 -15 -29 -2 -53 11 -20 22 -26 49 -26 27 0 38 6 49 26 13 24 13 29 -2 53 -12 18 -26 26 -47 26 -21 0 -35 -8 -47 -26z"/> </g> </svg> 